<svg xmlns="http://www.w3.org/2000/svg" width="23.667" height="23.675" viewBox="0 0 23.667 23.675">
  <g id="Group_256" data-name="Group 256" transform="translate(-681 601)">
    <path id="Path_154" data-name="Path 154" d="M681-588.469v-1.387c.019-.166.038-.333.057-.5a11.694,11.694,0,0,1,2.973-6.7,11.612,11.612,0,0,1,6.769-3.761c.445-.079.9-.123,1.345-.184h1.387c.4.05.794.086,1.188.151a11.521,11.521,0,0,1,6.4,3.249,11.563,11.563,0,0,1,3.49,9.628,11.3,11.3,0,0,1-2.89,6.615,11.588,11.588,0,0,1-8.384,4.016,11.255,11.255,0,0,1-6.529-1.65,11.664,11.664,0,0,1-5.621-8.135C681.1-587.569,681.06-588.02,681-588.469Zm11.838-10.693a10,10,0,0,0-10,9.994,10.006,10.006,0,0,0,9.988,10,10.007,10.007,0,0,0,10.011-10.005A10,10,0,0,0,692.838-599.161Z" fill="#bbb"/>
    <path id="Path_155" data-name="Path 155" d="M780.628-500.757h-2.875c-.277,0-.555.008-.832,0a.91.91,0,0,1-.872-.88.907.907,0,0,1,.789-.931,2.3,2.3,0,0,1,.322-.02q1.583,0,3.166,0h.3v-.266c0-1.1,0-2.2,0-3.305a.937.937,0,0,1,.666-.969.92.92,0,0,1,1.172.94c.007,1.094,0,2.188,0,3.282v.319h.3c1.086,0,2.172,0,3.259,0a.942.942,0,0,1,.968.6.911.911,0,0,1-.879,1.228c-1.094.008-2.188,0-3.282,0h-.362v.249c0,1.117,0,2.234,0,3.351a.918.918,0,0,1-.87.978.92.92,0,0,1-.969-1c0-1.1,0-2.2,0-3.3Z" transform="translate(-88.711 -87.572)" fill="#bbb"/>
  </g>
</svg>
