<svg xmlns="http://www.w3.org/2000/svg" width="26.866" height="31.906" viewBox="0 0 26.866 31.906">
  <g id="Group_248" data-name="Group 248" transform="translate(-608.74 546.467)">
    <path id="Path_149" data-name="Path 149" d="M613.169-471.491c-.21-.047-.421-.091-.63-.143a4.983,4.983,0,0,1-3.792-4.815q-.012-8.474,0-16.948a4.963,4.963,0,0,1,4.936-4.948q6-.019,12,0a4.957,4.957,0,0,1,4.935,4.917q.022,8.5,0,17.01a4.968,4.968,0,0,1-4.249,4.871,1.052,1.052,0,0,0-.172.056Zm-1.932-13.46q0,4.159,0,8.318a2.5,2.5,0,0,0,2.657,2.65h11.56a2.5,2.5,0,0,0,2.673-2.665q0-8.271,0-16.542a2.5,2.5,0,0,0-2.673-2.665H613.925a2.5,2.5,0,0,0-2.688,2.68Q611.236-489.064,611.237-484.952Z" transform="translate(0 -43.069)" fill="#979797"/>
    <path id="Path_150" data-name="Path 150" d="M693.667-532.191q0,4.735,0,9.47a1.242,1.242,0,0,1-1.621,1.245,1.243,1.243,0,0,1-.867-1.106c-.007-.114,0-.228,0-.343q0-9.221,0-18.441a2.486,2.486,0,0,0-2.14-2.578,3.471,3.471,0,0,0-.559-.028l-13.522,0a1.252,1.252,0,0,1-1.353-1.237,1.248,1.248,0,0,1,1.148-1.251c.072-.006.145,0,.218,0q6.839,0,13.677,0a4.957,4.957,0,0,1,4.918,4,5.572,5.572,0,0,1,.1,1.112Q693.674-536.77,693.667-532.191Z" transform="translate(-58.061)" fill="#979797"/>
  </g>
</svg>
