<svg xmlns="http://www.w3.org/2000/svg" width="26.93" height="26.247" viewBox="0 0 26.93 26.247">
  <g id="Group_353" data-name="Group 353" transform="translate(-293.703 999.795)">
    <path id="Path_208" data-name="Path 208" d="M301.9-994.55a3.335,3.335,0,0,1,.644-4.568,3.339,3.339,0,0,1,4.642.6,3.312,3.312,0,0,1,2.484-1.278,3.172,3.172,0,0,1,2.075.635,3.224,3.224,0,0,1,1.3,2.154,3.376,3.376,0,0,1-.6,2.453h.377q2.846,0,5.692,0a1.985,1.985,0,0,1,2.131,2.135c0,.769,0,1.538,0,2.308a1.97,1.97,0,0,1-1.16,1.935c-.2.1-.162.235-.162.38q0,5.354,0,10.708c0,.492,0,.985,0,1.477a1.943,1.943,0,0,1-2.04,2.056q-10.093.006-20.185,0a1.944,1.944,0,0,1-2.051-2.075q-.005-6.062,0-12.123a.47.47,0,0,0-.293-.49A1.9,1.9,0,0,1,293.711-990c-.009-.841-.011-1.682,0-2.523a1.968,1.968,0,0,1,2.055-2.023q2.877-.005,5.754,0Zm1.977,19.693v-13.1H296.34v.231q0,6.046,0,12.091c0,.54.246.779.8.779q2.185,0,4.369,0Zm14.13-13.1H310.47v13.1H317.1c.694,0,.9-.2.9-.895q0-5.923,0-11.845Zm-12.786,13.083h3.908v-13.086h-3.908Zm-1.34-18.342a.941.941,0,0,0-.127-.023q-4,0-7.991,0c-.486,0-.723.258-.726.756,0,.779,0,1.557,0,2.336,0,.64.206.844.847.844h7.683c.1,0,.2-.009.314-.015Zm6.589,3.891c.1.008.175.021.254.021q3.919,0,7.837,0c.517,0,.748-.235.751-.754,0-.768,0-1.537,0-2.3,0-.673-.207-.878-.884-.878H310.8c-.109,0-.218.009-.338.015Zm-1.345.008v-3.9h-3.9v3.9Zm-2.616-5.24c0-.706.017-1.381,0-2.055a1.945,1.945,0,0,0-1.969-1.876,1.979,1.979,0,0,0-1.956,1.9,1.959,1.959,0,0,0,1.8,2.019C305.067-994.523,305.765-994.557,306.5-994.557Zm1.356,0c.717,0,1.415.033,2.109-.008a1.959,1.959,0,0,0,1.8-1.958,1.989,1.989,0,0,0-1.773-1.958,1.92,1.92,0,0,0-2.117,1.6A20.626,20.626,0,0,0,307.86-994.557Z" transform="translate(0 0)" fill="#bcbaba"/>
  </g>
</svg>
