<svg xmlns="http://www.w3.org/2000/svg" width="156.5" height="156.516" viewBox="0 0 156.5 156.516">
  <g id="Google_Authenticator_for_Android_icon" transform="translate(-42.766 -42.724)">
    <path id="Path_247" data-name="Path 247" d="M111.858,43.257a78.559,78.559,0,0,1,36.51,4.376,77.717,77.717,0,0,1,27.97,18.026c-6.722,6.666-13.383,13.393-20.1,20.067a50.762,50.762,0,0,0-14.921-10.235,49.8,49.8,0,1,0-7.943,93.735c.662-.319,1.041.435,1.456.81q10.191,10.244,20.417,20.451a78.4,78.4,0,0,1-72.045-1.844,80.843,80.843,0,0,1-11.729-7.928,74.524,74.524,0,0,1-8.292-7.9,75.978,75.978,0,0,1-10.868-15.154c-.667-1.287-1.441-2.522-1.985-3.869-.745-1.509-1.4-3.062-2.043-4.614-.827-2.213-1.711-4.409-2.315-6.7a2.653,2.653,0,0,0-.42-.809,75.409,75.409,0,0,1-2.575-14.682,80.261,80.261,0,0,1,.8-18.683,78.264,78.264,0,0,1,68.081-65.054m8.2,8.418a5.554,5.554,0,0,0-2.565,1.239,5.346,5.346,0,1,0,2.565-1.239M75.373,70.352a5.476,5.476,0,0,0-2.528.78,5.358,5.358,0,1,0,8.078,5.553,5.365,5.365,0,0,0-5.55-6.334M56.034,115.713a5.535,5.535,0,0,0-2.925,1.568,5.351,5.351,0,1,0,2.925-1.568m18.675,45.369a5.354,5.354,0,0,0-2.658,9.212,5.4,5.4,0,0,0,3.781,1.388,5.344,5.344,0,1,0-1.122-10.6m45.371,18.683a5.34,5.34,0,1,0,4.183,1.019,5.347,5.347,0,0,0-4.183-1.019Z" transform="translate(0)" fill="#a0a0a0"/>
    <g id="Group_390" data-name="Group 390" transform="translate(51.63 51.582)">
      <path id="Path_248" data-name="Path 248" d="M484.254,95.932a5.358,5.358,0,1,1-2.565,1.239,5.554,5.554,0,0,1,2.565-1.239Z" transform="translate(-415.824 -95.838)" fill="#c1c1c1"/>
      <path id="Path_249" data-name="Path 249" d="M100.322,479.9a5.345,5.345,0,1,1-2.925,1.568A5.534,5.534,0,0,1,100.322,479.9Z" transform="translate(-95.918 -415.773)" fill="#c1c1c1"/>
    </g>
    <path id="Path_250" data-name="Path 250" d="M318.5,180.158l.018-.018a81,81,0,0,1,10.942,13.753,77.771,77.771,0,0,1,11.319,31.561,78.717,78.717,0,0,1-.342,22.559,78.341,78.341,0,0,1-42.411,57.555l-.105-.043c-.168-.183-.339-.36-.509-.537q-10.194-10.239-20.417-20.451c-.415-.375-.794-1.129-1.456-.811a49.924,49.924,0,0,1-18.52,1.167,49.419,49.419,0,0,1-20.339-7.251,49.967,49.967,0,0,1-13.712-12.793,49.81,49.81,0,0,1,60.513-74.859A50.763,50.763,0,0,1,298.4,200.226c6.714-6.674,13.375-13.4,20.1-20.067m-58.66,30.68a24.378,24.378,0,0,0-9.986,3.659,24.837,24.837,0,0,0-7.144,35.12,35.536,35.536,0,0,0,4.611,5.233Q261.658,269.212,276,283.569a49.928,49.928,0,0,0,36.249-39.6c.04-.173.037-.485.309-.434,4.941.007,9.883,0,14.826.008a7.233,7.233,0,0,0,6.8-5.58.743.743,0,0,0-.112-.559,8.89,8.89,0,0,0,.23-2.907l-.04.067a7.119,7.119,0,0,0-6.879-6.2q-20.172-.018-40.346-.012a25.121,25.121,0,0,0-5.675-9.878,24.811,24.811,0,0,0-16.68-7.808,30.46,30.46,0,0,0-4.841.17M307.593,275.6a5.344,5.344,0,0,0-4.286,4.2,5.326,5.326,0,0,0,5.393,6.354,5.4,5.4,0,0,0,3.7-1.611,5.493,5.493,0,0,0,1.446-3.369,5.282,5.282,0,0,0-2.48-4.83,5.208,5.208,0,0,0-3.769-.744Z" transform="translate(-142.158 -114.499)" fill="#686868"/>
    <path id="Path_251" data-name="Path 251" d="M212.889,208.35a5.353,5.353,0,1,1-4.923,6.594,5.39,5.39,0,0,1,2.395-5.814A5.476,5.476,0,0,1,212.889,208.35Z" transform="translate(-137.516 -137.998)" fill="#c3c3c3"/>
    <path id="Path_252" data-name="Path 252" d="M384.447,363.3a30.468,30.468,0,0,1,4.841-.17,24.811,24.811,0,0,1,16.68,7.808,25.119,25.119,0,0,1,5.675,9.878q-11.925,0-23.853,0a7.124,7.124,0,1,0,.16,14.247q31.692-.01,63.385,0a8.265,8.265,0,0,0,2.368-.247,7.154,7.154,0,0,0,4.975-4.953.743.743,0,0,1,.112.559,7.233,7.233,0,0,1-6.8,5.58c-4.943-.01-9.884,0-14.826-.008-.272-.052-.268.26-.309.434a49.928,49.928,0,0,1-36.249,39.6q-14.354-14.346-28.682-28.719a35.537,35.537,0,0,1-4.611-5.233,24.748,24.748,0,0,1-3.929-9.257,24.838,24.838,0,0,1,11.073-25.862,24.378,24.378,0,0,1,9.986-3.659Z" transform="translate(-266.769 -266.963)" fill="#474747"/>
    <g id="Group_391" data-name="Group 391" transform="translate(70.314 113.853)">
      <path id="Path_253" data-name="Path 253" d="M471.111,471.675a7.131,7.131,0,0,1,5.372-2.436q11.927,0,23.853,0,20.175.015,40.346.012a7.119,7.119,0,0,1,6.879,6.2c-.032.055-.1.162-.13.215a7.063,7.063,0,0,0-6.749-5.512q-31.261.025-62.523.028a11.415,11.415,0,0,0-3.861.327,7.461,7.461,0,0,0-3.714,2.785c-.557.759-.732,1.708-1.214,2.506a7.135,7.135,0,0,1,1.741-4.126Z" transform="translate(-425.774 -469.238)" fill="#bfbfbf"/>
      <path id="Path_254" data-name="Path 254" d="M212.349,751.994a5.354,5.354,0,1,1-4.143,3.649,5.364,5.364,0,0,1,4.143-3.649Z" transform="translate(-207.953 -704.766)" fill="#bfbfbf"/>
    </g>
    <path id="Path_255" data-name="Path 255" d="M474.182,475.085a11.417,11.417,0,0,1,3.861-.327q31.261-.013,62.523-.028a7.063,7.063,0,0,1,6.749,5.512c.033-.053.1-.16.13-.215l.04-.067a8.886,8.886,0,0,1-.23,2.907,7.154,7.154,0,0,1-4.975,4.953,8.262,8.262,0,0,1-2.368.247q-31.692-.023-63.385,0a7.144,7.144,0,0,1-7.273-7.685c.482-.8.657-1.748,1.214-2.506a7.462,7.462,0,0,1,3.714-2.785Z" transform="translate(-355.345 -359.961)" fill="#b0b0b0"/>
    <path id="Path_256" data-name="Path 256" d="M59.49,636.08a2.653,2.653,0,0,1,.42.809c.6,2.286,1.488,4.483,2.315,6.7.647,1.553,1.3,3.105,2.043,4.614.544,1.348,1.317,2.582,1.985,3.869a75.977,75.977,0,0,0,10.868,15.154,74.525,74.525,0,0,0,8.292,7.9,80.843,80.843,0,0,0,11.729,7.928,78.4,78.4,0,0,0,72.045,1.844c.17.177.34.354.509.537l.005.1a77.833,77.833,0,0,1-22.44,7.156,79.237,79.237,0,0,1-28.654-.75,78.392,78.392,0,0,1-55.58-45.658,70.168,70.168,0,0,1-3.535-10.2Z" transform="translate(-13.935 -494.403)" fill="#939393"/>
    <path id="Path_257" data-name="Path 257" d="M756.451,752.134a5.208,5.208,0,0,1,3.769.744,5.281,5.281,0,0,1,2.48,4.83,5.494,5.494,0,0,1-1.446,3.369,5.4,5.4,0,0,1-3.7,1.611,5.326,5.326,0,0,1-5.393-6.354,5.344,5.344,0,0,1,4.286-4.2Z" transform="translate(-591.015 -591.038)" fill="#767676"/>
    <path id="Path_258" data-name="Path 258" d="M484.381,864.064a5.338,5.338,0,1,1-4.184,3.769A5.359,5.359,0,0,1,484.381,864.064Z" transform="translate(-364.301 -684.299)" fill="#bebebe"/>
  </g>
</svg>
