<svg xmlns="http://www.w3.org/2000/svg" width="22.143" height="23.247" viewBox="0 0 22.143 23.247">
  <path id="Path_228" data-name="Path 228" d="M-750.438,321.66a.868.868,0,0,1,.466-.632.272.272,0,0,1,.143-.005c.475.09.95.187,1.426.274.277.051.557.083.835.132s.552.107.828.16c.217.042.434.086.652.123.461.078.923.145,1.383.228s.892.179,1.339.267c.2.039.4.071.6.105.455.077.911.148,1.364.231s.9.182,1.356.267c.271.051.544.089.815.135q.318.054.636.112c.53.1,1.06.2,1.588.3.434.085.867.182,1.3.265s.874.152,1.309.234c.518.1,1.039.185,1.55.313a1.188,1.188,0,0,1,.48.3c.9.843,1.784,1.7,2.676,2.545.348.331.718.642,1.046.991a2.22,2.22,0,0,1,.337.6.262.262,0,0,1-.044.215c-.293.408-.582.82-.9,1.21-.909,1.124-1.831,2.238-2.747,3.357-1,1.216-1.986,2.437-2.985,3.65-.865,1.051-1.741,2.094-2.61,3.142q-1.195,1.441-2.386,2.885c-.31.373-.625.742-.936,1.114-.092.11-.189.11-.261-.006a4.307,4.307,0,0,1-.336-.6c-.166-.4-.3-.8-.458-1.205-.183-.467-.375-.931-.565-1.4s-.379-.915-.568-1.374-.364-.9-.548-1.343-.361-.871-.543-1.306q-.283-.678-.569-1.355c-.191-.451-.385-.9-.574-1.351-.216-.518-.425-1.038-.64-1.557-.185-.447-.374-.891-.561-1.337s-.365-.869-.547-1.3q-.286-.686-.57-1.373c-.218-.53-.433-1.062-.651-1.591s-.451-1.079-.671-1.621c-.182-.448-.354-.9-.533-1.35-.158-.4-.323-.8-.477-1.2-.12-.312-.226-.629-.34-.944C-750.358,321.865-750.4,321.763-750.438,321.66Zm2.4,1.947-.05.037,6.894,16.827.056-.009a.981.981,0,0,0,.042-.148c.039-.3.073-.607.112-.911.054-.416.116-.832.164-1.249s.083-.848.127-1.272c.031-.3.065-.608.1-.912.058-.464.124-.927.18-1.392.05-.417.09-.835.137-1.252q.085-.76.176-1.519c.046-.387.089-.775.149-1.16a.31.31,0,0,0-.114-.317q-1.628-1.378-3.256-2.757c-.8-.678-1.608-1.351-2.409-2.03-.728-.617-1.451-1.24-2.177-1.858A.864.864,0,0,0-748.041,323.607Zm17.305,6.013c-.13.028-.239.057-.349.073-.315.046-.63.084-.945.131-.237.035-.473.078-.708.119-.283.05-.565.109-.849.153-.314.049-.63.083-.944.13-.243.036-.484.08-.726.124-.271.049-.541.109-.813.151-.533.083-1.068.155-1.6.234-.219.033-.439.065-.656.109-.3.061-.331.106-.358.4-.017.186-.019.373-.042.557-.088.7-.187,1.4-.271,2.106s-.151,1.4-.227,2.094c-.033.3-.066.609-.1.912-.057.44-.121.88-.177,1.32-.062.488-.122.976-.176,1.465-.027.248-.04.5-.059.754C-739.582,340.419-730.774,329.827-730.736,329.62Zm-16.234-6.677-.018.051c.094.082.185.166.281.244q.752.616,1.506,1.229c.875.712,1.753,1.42,2.625,2.135q1.545,1.266,3.081,2.543a.232.232,0,0,0,.358.005c.358-.319.724-.63,1.092-.939q1.482-1.244,2.968-2.485c.142-.119.286-.238.423-.363a.244.244,0,0,0,.066-.136c0-.016-.057-.056-.092-.062q-.574-.108-1.149-.208c-.448-.078-.9-.148-1.346-.228-.725-.129-1.449-.263-2.173-.4q-.318-.058-.635-.12c-.464-.09-.927-.186-1.392-.272-.442-.082-.886-.149-1.328-.232s-.879-.183-1.321-.265-.91-.153-1.365-.231c-.212-.037-.423-.079-.635-.121-.259-.051-.516-.107-.776-.156A.752.752,0,0,0-746.971,322.943Zm9.465,6.5.019.063c.1-.01.193-.017.289-.032.065-.011.126-.04.191-.052.455-.077.911-.149,1.365-.229.542-.1,1.083-.2,1.625-.3.218-.04.436-.077.654-.119.453-.087.9-.181,1.358-.263s.91-.151,1.364-.232a.2.2,0,0,0,.137-.089c.012-.032-.038-.1-.077-.137q-.692-.644-1.39-1.282c-.313-.289-.631-.574-.938-.87a.208.208,0,0,0-.343,0c-.188.176-.394.333-.593.5q-1.637,1.353-3.274,2.707C-737.25,329.209-737.377,329.326-737.506,329.44Z" transform="translate(750.438 -321.016)" fill="#f44336"/>
</svg>
