<svg xmlns="http://www.w3.org/2000/svg" width="29.14" height="20.5" viewBox="0 0 29.14 20.5">
  <path id="Path_181" data-name="Path 181" d="M664-354.977a6.8,6.8,0,0,1,.515-1.213,2.441,2.441,0,0,1,2.093-1.063c.047,0,.095,0,.142,0H690.4a2.5,2.5,0,0,1,2.463,1.457,2.854,2.854,0,0,1,.267,1.176q.026,7.613.008,15.226a2.562,2.562,0,0,1-2.71,2.632q-9.8,0-19.6,0c-1.328,0-2.656-.028-3.983.008a2.636,2.636,0,0,1-2.812-2.233.2.2,0,0,0-.024-.051Zm2.949-.556c.065.072.1.109.128.142q4.81,4.786,9.628,9.565a2.888,2.888,0,0,0,.989.64,2.5,2.5,0,0,0,2.8-.689q4.749-4.727,9.5-9.452c.057-.056.109-.117.19-.206Zm.159,17.038H690.02l-7.181-7.329c-.421.429-.8.835-1.2,1.223a4.212,4.212,0,0,1-4.26,1.126,4.2,4.2,0,0,1-1.92-1.167c-.378-.383-.754-.768-1.162-1.185Zm-1.381-15.843v14.673l7.21-7.347Zm25.687.023-7.176,7.291,7.176,7.316Z" transform="translate(-664 357.254)" fill="#bcbaba"/>
</svg>
