<svg xmlns="http://www.w3.org/2000/svg" width="27.255" height="27.253" viewBox="0 0 27.255 27.253">
  <g id="Group_414" data-name="Group 414" transform="translate(-1583.745 -342)">
    <path id="Path_210" data-name="Path 210" d="M1064.6-774.855a14.121,14.121,0,0,1,6.417,1.433.9.9,0,0,1,.567.924.782.782,0,0,1-.611.757,1.273,1.273,0,0,1-.765-.085,11.768,11.768,0,0,0-3.038-1.017A11.6,11.6,0,0,0,1057-769.918a11.222,11.222,0,0,0-3.62,6.58,11.507,11.507,0,0,0,2.667,9.792,11.25,11.25,0,0,0,6.922,3.931,11.511,11.511,0,0,0,9.687-2.646,11.367,11.367,0,0,0,3.945-6.848,14.183,14.183,0,0,0,.2-2.423.939.939,0,0,1,.911-.991.9.9,0,0,1,.9,1,13.451,13.451,0,0,1-3.114,8.938,13.371,13.371,0,0,1-8.034,4.741,12.5,12.5,0,0,1-3.017.229,13.508,13.508,0,0,1-7.872-2.922,13.208,13.208,0,0,1-4.922-8.021,13.226,13.226,0,0,1,2.643-11.064,13.2,13.2,0,0,1,8.038-4.945C1063.224-774.749,1064.139-774.8,1064.6-774.855Z" transform="translate(532.371 1116.855)" fill="#08bb08"/>
    <path id="Path_211" data-name="Path 211" d="M1165.272-703.36a.886.886,0,0,1-.724-.343q-2.591-2.549-5.185-5.094c-.22-.216-.444-.426-.664-.642-.519-.51-.59-1.051-.2-1.452.412-.419.927-.365,1.454.155l4.583,4.516c.177.174.368.335.532.52s.272.156.434-.005c.766-.765,1.543-1.518,2.315-2.277l9.643-9.482a.937.937,0,0,1,1.176-.284.883.883,0,0,1,.316,1.32,2.319,2.319,0,0,1-.242.262q-6.331,6.222-12.662,12.444A.967.967,0,0,1,1165.272-703.36Z" transform="translate(431.866 1063.253)" fill="#08bb08"/>
  </g>
</svg>
