<svg xmlns="http://www.w3.org/2000/svg" width="175.497" height="175.503" viewBox="0 0 175.497 175.503">
  <g id="Group_394" data-name="Group 394" transform="translate(-358.386 367.612)">
    <path id="Path_259" data-name="Path 259" d="M419.12-299.821v-7.136c1.849,0,3.719-.051,5.586.021,1,.039,1.4-.205,1.344-1.293-.094-1.868-.027-3.745-.027-5.744h6.985v-6.9h7.167l-.047-.043v6.961h6.967v7.018h7.048v7.01c1.767,0,3.414-.01,5.064,0,3.009.025,6.018.063,9.026.1l-.035-.037V-293h7.048v-6.866l-.025.031h7V-285.9h13.968v14.072h-1.221q-5.764,0-11.526,0c-.409,0-.818.063-1.227.094v-7.053h-6.922v7.022h6.95v6.914h13.958v28.065h-42c-.025-.286-.069-.538-.069-.79q-.006-9.615,0-19.225a6.5,6.5,0,0,1,.123-.879q3.481-.047,6.967-.088v7.034H475.24v6.924h13.927v-13.882h-6.993v6.985h-6.961v-14.021h-7.059v6.989h-6.96v-6.979h-6.916v7.061q-2.762-.064-5.523-.127c-.485-.01-.97,0-1.612,0v-6.952H440.1v6.887H433.06v-6.9H419.073v6.938h6.887v21.01H412.166c0-2.307,0-4.574,0-6.844,2.234,0,4.471,0,6.748,0v-7.05h-6.944c0,1.661-.023,3.267.01,4.872.014.736.137,1.467.209,2.2-1.234-.037-2.469-.1-3.7-.108-3.567-.012-7.132,0-10.7,0l.037.027v-7.083h7.018v-6.981l-.037.033h7.073v-7.046h-7.065l.025.023c.033-1.372.1-2.743.086-4.115-.008-.949-.117-1.9-.182-2.843l-.021.018c.485-.045.969-.127,1.454-.129q12.717-.012,25.436,0h1.348v-14.007h-6.862l.037.035v-7.1h4.136c2.782,0,2.765,0,2.79-2.735.012-1.377.1-2.755.151-4.134,1.3-.055,2.606-.121,3.911-.153.961-.025,1.923-.006,2.868-.006v-6.954h-6.76v7.13a2.685,2.685,0,0,0-.648-.162q-6.75.012-13.5.047Zm21.033,6.979v20.92h20.926v-20.92Z" transform="translate(37.688 44.665)" fill="#fff"/>
    <path id="Path_260" data-name="Path 260" d="M365.425-303.587q-.041-5.315-.078-10.63c-.008-1.166,0-2.332,0-3.651h-6.958v-21.016h34.974v6.907h-27.94v7.03h6.936v14h6.991v-6.9h7.01v-6.956h35.158v13.943h14v6.948H414.529v-13.888h-14v6.932h6.879v7.03h-7.093v7.245l.018-.02a8.081,8.081,0,0,0-1.194-.17c-3.807-.014-7.615-.008-11.422-.012-.4,0-.808-.033-1.319-.057v-6.9h-6.963v6.862H372.4v-6.723h-7Z" transform="translate(0.001 27.48)" fill="#fff"/>
    <path id="Path_261" data-name="Path 261" d="M407.38-318.578H358.4V-367.6H407.38Zm-6.991-42h-35v34.958h35Z" transform="translate(0.012 0.012)" fill="#fff"/>
    <path id="Path_262" data-name="Path 262" d="M472.014-318.584H423.041V-367.6h48.973Zm-7.03-7.02v-35H430.049v35Z" transform="translate(61.847 0.013)" fill="#fff"/>
    <path id="Path_263" data-name="Path 263" d="M407.424-302.976v49.038H358.386v-49.038Zm-7.01,7.061h-35v34.94h35Z" transform="translate(0 61.829)" fill="#fff"/>
    <path id="Path_264" data-name="Path 264" d="M422.617-322.018h-7.065v-13.925h13.9v-7.036H401.472v-13.988h6.916v6.864h7.053v-13.9h14.263l-.033-.033c-.037.067-.106.131-.106.2-.006,4.555,0,9.11,0,13.772h6.893v28.063h-6.862l.02.025v-6.913h-7.046v6.918Z" transform="translate(41.215 3.418)" fill="#fff"/>
    <path id="Path_265" data-name="Path 265" d="M437.423-303.6v-7.257h13.86v-7H444.4v-21.045h6.92v13.98h6.965v21.074h-6.866v7h6.873v14.011h-6.934v-6.918h-7.044v-13.868c-2.377,0-4.641,0-6.9,0Z" transform="translate(75.591 27.471)" fill="#fff"/>
    <path id="Path_266" data-name="Path 266" d="M394.194-310.284H401.3v-7.038h14.025v6.9h-6.891v7c.452.02.851.055,1.252.055,3.843,0,7.683,0,11.526.008.448,0,.9.067,1.342.1l-.043-.047v14.07h7.055l-.037-.035v6.883H415.372v-6.942h-7.026v-7.048h-7.012v-6.987c-2.035,0-3.948-.053-5.856.022-.97.037-1.207-.3-1.186-1.221.045-1.917-.025-3.839-.049-5.76Z" transform="translate(34.253 48.106)" fill="#fff"/>
    <path id="Path_267" data-name="Path 267" d="M408-267.745v6.938H387.109v-34.978h6.883l-.02-.027v6.991h1.763q9.656.026,19.313.051l-.025-.023-.008,7.046.037-.033h-20.9v14.064h13.878Z" transform="translate(27.476 68.682)" fill="#fff"/>
    <path id="Path_268" data-name="Path 268" d="M407.882-325.086c-.374.029-.747.084-1.119.084q-12.834.009-25.668,0h-1.168V-332h20.941v-7.12l-.023.027h7.042v-7.042l-.029.023,7.038.006-.023-.035v7.053h7.055l-.045-.047a9.749,9.749,0,0,1,.133,1.109q.012,5.94,0,11.876a8.822,8.822,0,0,1-.135,1.1l.02-.02-7.038-.029.049.043v-6.862h-7.044v6.856Z" transform="translate(20.605 20.535)" fill="#fff"/>
    <path id="Path_269" data-name="Path 269" d="M394-328.9h-6.864v-13.946h6.844v-7.042h-6.868v-6.94H408.04v6.877h-6.879c-.025.54-.067.972-.067,1.407-.006,3.807,0,7.617-.008,11.426,0,.409-.067.818-.1,1.227l.029-.023h-7.042v7.042Z" transform="translate(27.476 10.313)" fill="#fff"/>
    <path id="Path_270" data-name="Path 270" d="M393.981-282.246h-6.862v-35.087h13.843v7.059l.049-.043h-6.958v1.432q0,12.608,0,25.216c0,.485-.061.97-.094,1.458Z" transform="translate(27.485 48.096)" fill="#fff"/>
    <path id="Path_271" data-name="Path 271" d="M422.571-328.212q-.038,6.272-.078,12.546c0,.485,0,.969,0,1.542H401.477V-328h6.946v6.846h7.02v-7.034h7.151Z" transform="translate(41.22 37.689)" fill="#fff"/>
    <path id="Path_272" data-name="Path 272" d="M426.626-317.835v-6.924h6.959V-331.7h13.982v6.934h-6.93v14.2l.023-.033-7.04.033v-7.161c-.747,0-1.3.01-1.857,0q-2.583-.056-5.161-.121Z" transform="translate(65.254 34.35)" fill="#fff"/>
    <path id="Path_273" data-name="Path 273" d="M401.367-331.918h7.167v-7.026h14.173l-.025-.024v7.1H415.6v6.94H401.389v-7.01Z" transform="translate(41.114 27.401)" fill="#fff"/>
    <path id="Path_274" data-name="Path 274" d="M437.209-320.884q3.56.044,7.122.092l-.012-.018a4.027,4.027,0,0,0-.108.653q0,10.16.014,20.321l.025-.031-7.048,0,.035.037v-7.132h-7.053l0-6.924h7.046v-7.028Z" transform="translate(68.681 44.667)" fill="#fff"/>
    <path id="Path_275" data-name="Path 275" d="M365.389-320.711c-.018,2.485-.049,4.97-.051,7.455q-.012,9.553,0,19.106v1.278H358.4v-28.143l7.014.333Z" transform="translate(0.011 44.572)" fill="#fff"/>
    <path id="Path_276" data-name="Path 276" d="M412.281-321.323v-6.924h6.928v-7.116h7.1l-.023-.025v7.1h6.877v6.965c-.3.031-.552.084-.806.084q-9.664.009-19.325,0a5.475,5.475,0,0,1-.773-.11Z" transform="translate(51.532 30.824)" fill="#fff"/>
    <path id="Path_277" data-name="Path 277" d="M397.81-342.745v-6.918h14.06v13.89H404.8l.045.047v-7.053h-7.055Z" transform="translate(37.689 17.17)" fill="#fff"/>
    <path id="Path_278" data-name="Path 278" d="M419.473-317.333v-7.1c.376-.021.769-.063,1.164-.065,3.837,0,7.676,0,11.512-.008.446,0,.894-.065,1.34-.1l-.024-.016.039,7.292c-1.309-.045-2.62-.133-3.929-.129-3.385.006-6.768.053-10.151.084Z" transform="translate(58.389 41.122)" fill="#fff"/>
    <path id="Path_279" data-name="Path 279" d="M394.287-367.612h6.9v13.9h-6.9Z" transform="translate(34.342)" fill="#fff"/>
    <path id="Path_280" data-name="Path 280" d="M401.2-335.389c.043.446.123.892.125,1.338q.015,5.708.006,11.419v1.311H394.3c0-.7,0-1.332,0-1.964q-.038-6.046-.078-12.09l-.018.023,7.044.006Z" transform="translate(34.263 30.824)" fill="#fff"/>
    <path id="Path_281" data-name="Path 281" d="M415.838-278.147v-6.877h13.9v6.877Z" transform="translate(54.957 79.001)" fill="#fff"/>
    <path id="Path_282" data-name="Path 282" d="M386.6-306.6a9.666,9.666,0,0,0-1.2-.153c-3.8-.012-7.6-.006-11.4-.006h-1.264v-6.922a6.481,6.481,0,0,1,.8-.1q6.2-.009,12.411,0a4.7,4.7,0,0,1,.763.125l-.024-.027-.1,7.1Z" transform="translate(13.732 51.492)" fill="#fff"/>
    <path id="Path_283" data-name="Path 283" d="M408.328-360.695h-6.84v-6.914h6.84Z" transform="translate(41.23 0.003)" fill="#fff"/>
    <path id="Path_284" data-name="Path 284" d="M415.919-360.594v-7.012h6.776v6.975q-3.41,0-6.811,0Z" transform="translate(55.001 0.006)" fill="#fff"/>
    <path id="Path_285" data-name="Path 285" d="M394-357.138h-6.9v-6.875H394Z" transform="translate(27.472 3.443)" fill="#fff"/>
    <path id="Path_286" data-name="Path 286" d="M372.459-303.274h-6.893v-6.871h6.893Z" transform="translate(6.868 54.971)" fill="#fff"/>
    <path id="Path_287" data-name="Path 287" d="M379.818-317.169c1.154-.067,2.309-.158,3.463-.192s2.334-.008,3.6-.008v7.132h-6.965l.024.027q-.05-3.49-.1-6.981Z" transform="translate(20.501 48.051)" fill="#fff"/>
    <path id="Path_288" data-name="Path 288" d="M433.8-338.9h6.885v6.869H433.8Z" transform="translate(72.135 27.469)" fill="#fff"/>
    <path id="Path_289" data-name="Path 289" d="M419.28-342.55v7.02h-7.012l.025.025q.006-3.528.01-7.057l-.049.043,7.046-.006Z" transform="translate(51.529 23.962)" fill="#fff"/>
    <path id="Path_290" data-name="Path 290" d="M390.64-292.352q0-3.525,0-7.048l-.025.035h7.049v6.985h-7.042Z" transform="translate(30.827 65.25)" fill="#fff"/>
    <path id="Path_291" data-name="Path 291" d="M379.816-310.089h7.108v6.766h-7.087c0-2.311,0-4.551,0-6.787Z" transform="translate(20.499 55.005)" fill="#fff"/>
    <path id="Path_292" data-name="Path 292" d="M433.5-338.888v6.869h-6.873v-6.869Z" transform="translate(65.279 27.477)" fill="#fff"/>
    <path id="Path_293" data-name="Path 293" d="M419.451-332.022v-6.86h6.844v6.836c-2.3,0-4.584,0-6.868,0Z" transform="translate(58.39 27.482)" fill="#fff"/>
    <path id="Path_294" data-name="Path 294" d="M404.631-292.319H397.9v-7.057h6.711v7.075Z" transform="translate(37.798 65.273)" fill="#fff"/>
    <path id="Path_295" data-name="Path 295" d="M423.031-302.98h6.87v6.868h-6.87Z" transform="translate(61.838 61.825)" fill="#fff"/>
    <path id="Path_296" data-name="Path 296" d="M433.645-320.915l.008,7.051c-1.757-.039-3.516-.082-5.273-.117-.556-.01-1.111,0-1.781,0v-6.938Z" transform="translate(65.251 44.665)" fill="#fff"/>
    <path id="Path_297" data-name="Path 297" d="M386.462-339.479h-20.89v-20.953h20.89Z" transform="translate(6.874 6.868)" fill="#fff"/>
    <path id="Path_298" data-name="Path 298" d="M451.159-360.437v20.93H430.206v-20.93Z" transform="translate(68.701 6.863)" fill="#fff"/>
    <path id="Path_299" data-name="Path 299" d="M386.481-274.833h-20.9v-20.951h20.9Z" transform="translate(6.882 68.709)" fill="#fff"/>
  </g>
</svg>
