<svg xmlns="http://www.w3.org/2000/svg" width="24.556" height="24.559" viewBox="0 0 24.556 24.559">
  <g id="Group_181" data-name="Group 181" transform="translate(-232.561 334.545)">
    <path id="Path_101" data-name="Path 101" d="M237.92-326.336v-.318q0-2.65,0-5.3a2.455,2.455,0,0,1,2.593-2.587c3.236,0,6.471,0,9.707,0a2.617,2.617,0,0,1,1.95.8q2.064,2.078,4.142,4.143a2.623,2.623,0,0,1,.806,1.95q-.008,7.546,0,15.093a2.454,2.454,0,0,1-2.583,2.569q-7.015,0-14.03,0a2.448,2.448,0,0,1-2.575-2.572c0-.211-.051-.3-.267-.357a6.911,6.911,0,0,1-5.089-7.039,6.936,6.936,0,0,1,5.1-6.31Zm1.339-.191a6.932,6.932,0,0,1,7.133,6.6,6.683,6.683,0,0,1-1.466,4.6,6.891,6.891,0,0,1-5.651,2.672,1.123,1.123,0,0,0,1.193,1.327q7.029,0,14.057,0a1.132,1.132,0,0,0,1.25-1.266q0-7.03,0-14.06v-.3c-1.263,0-2.48,0-3.7,0a2.453,2.453,0,0,1-2.551-2.545c0-1.134,0-2.269,0-3.4v-.3h-3.558q-2.761,0-5.523,0a1.116,1.116,0,0,0-1.186,1.188c0,.26,0,.521,0,.781Zm5.8,6.938a5.585,5.585,0,0,0-5.539-5.577,5.585,5.585,0,0,0-5.62,5.525,5.582,5.582,0,0,0,5.567,5.634A5.585,5.585,0,0,0,245.061-319.589Zm10.445-8.705-4.636-4.65c0,1.172-.017,2.414.008,3.656a1.049,1.049,0,0,0,1.03.989C253.133-328.283,254.358-328.294,255.506-328.294Z" fill="#bbb"/>
    <path id="Path_102" data-name="Path 102" d="M330.976-271.372c-.7,0-1.393,0-2.089,0-.48,0-.787-.269-.782-.676a.683.683,0,0,1,.769-.662q2.131,0,4.262,0a.684.684,0,0,1,.769.662c0,.406-.3.675-.783.676C332.406-271.371,331.691-271.372,330.976-271.372Z" transform="translate(-80.362 -52.008)" fill="#bbb"/>
    <path id="Path_103" data-name="Path 103" d="M331.033-227.754c.706,0,1.411,0,2.117,0a.681.681,0,0,1,.754.676.677.677,0,0,1-.741.661q-2.159,0-4.317,0a.676.676,0,0,1-.74-.662.68.68,0,0,1,.755-.675C329.584-227.756,330.309-227.754,331.033-227.754Z" transform="translate(-80.363 -89.823)" fill="#bbb"/>
    <path id="Path_104" data-name="Path 104" d="M336.169-248.9c-.566,0-1.132,0-1.7,0a.679.679,0,0,1-.747-.683.677.677,0,0,1,.747-.654q1.712,0,3.425,0a.675.675,0,0,1,.734.668.676.676,0,0,1-.734.669C337.32-248.893,336.744-248.9,336.169-248.9Z" transform="translate(-85.088 -70.913)" fill="#bbb"/>
    <path id="Path_105" data-name="Path 105" d="M302.009-293.86c-.427,0-.854,0-1.281,0a.673.673,0,0,1-.719-.683.672.672,0,0,1,.719-.654q1.294-.007,2.589,0a.669.669,0,0,1,.705.668.671.671,0,0,1-.705.668C302.881-293.855,302.445-293.86,302.009-293.86Z" transform="translate(-56.731 -33.093)" fill="#bbb"/>
    <path id="Path_106" data-name="Path 106" d="M266.455-259.451c0,.409,0,.818,0,1.226a.837.837,0,0,1-.29.664c-.432.395-.852.8-1.281,1.2-.326.3-.609.315-.879.046a.655.655,0,0,1,0-.949c.294-.31.6-.613.907-.906a.6.6,0,0,0,.207-.486c-.011-.706-.015-1.412,0-2.118a.662.662,0,0,1,.94-.64.665.665,0,0,1,.392.652c0,.019,0,.037,0,.056Q266.455-260.078,266.455-259.451Z" transform="translate(-26.278 -61.458)" fill="#bbb"/>
  </g>
</svg>
