<svg xmlns="http://www.w3.org/2000/svg" width="29.098" height="25" viewBox="0 0 29.098 25">
  <g id="Group_369" data-name="Group 369" transform="translate(996.474 1119.264)">
    <path id="Path_216" data-name="Path 216" d="M-967.376-1096.487a7.8,7.8,0,0,1-.628,1.275,2.37,2.37,0,0,1-1.919.942c-.085,0-.17,0-.256,0q-11.741,0-23.483,0a2.6,2.6,0,0,1-2.546-1.515,2.386,2.386,0,0,1,.026-2.241c.33-.627.713-1.226,1.079-1.833q5.425-9,10.852-18a2.615,2.615,0,0,1,2.364-1.407,2.429,2.429,0,0,1,2.127,1.156c.663,1.035,1.284,2.1,1.919,3.149q4.959,8.223,9.91,16.451a11.233,11.233,0,0,1,.555,1.226Zm-14.556.334h11.7a1.833,1.833,0,0,0,.395-.029.7.7,0,0,0,.506-.966,2.311,2.311,0,0,0-.176-.323q-5.691-9.439-11.383-18.877c-.142-.235-.272-.478-.43-.7a.707.707,0,0,0-1.2,0c-.05.068-.092.143-.136.216q-5.845,9.693-11.689,19.388a1.967,1.967,0,0,0-.173.325.7.7,0,0,0,.492.931,1.763,1.763,0,0,0,.422.036Q-987.767-1096.151-981.932-1096.153Z" transform="translate(0 0)" fill="#f80"/>
    <path id="Path_217" data-name="Path 217" d="M-831.491-1019.456c-.037,1.172-.08,2.344-.109,3.517a.751.751,0,0,1-.508.739,1.457,1.457,0,0,1-1.026.031.687.687,0,0,1-.52-.7q-.123-3.5-.241-7a1.019,1.019,0,0,1,.713-1.151,1.408,1.408,0,0,1,1.6.363,1.476,1.476,0,0,1,.2.77c-.009,1.144-.055,2.288-.088,3.432Z" transform="translate(-149.288 -87.368)" fill="#f80"/>
    <path id="Path_218" data-name="Path 218" d="M-834.52-897.423a1.341,1.341,0,0,1,1.335-1.363,1.372,1.372,0,0,1,1.343,1.339,1.386,1.386,0,0,1-1.319,1.366A1.35,1.35,0,0,1-834.52-897.423Z" transform="translate(-148.715 -202.456)" fill="#f80"/>
  </g>
</svg>
