<svg xmlns="http://www.w3.org/2000/svg" width="37.722" height="37.705" viewBox="0 0 37.722 37.705">
  <g id="Group_122" data-name="Group 122" transform="translate(-104.545 -591.673)" opacity="0.6">
    <path id="Path_58" data-name="Path 58" d="M142.267,611.842v6.779c-.082.214-.149.435-.248.641a2.618,2.618,0,0,1-1.962,1.47c0,.15,0,.283,0,.416,0,1.421.015,2.842-.007,4.263a4.03,4.03,0,0,1-2.863,3.777c-.243.074-.493.127-.74.19H108.159a.924.924,0,0,0-.169-.063,4.012,4.012,0,0,1-3.434-3.956q-.021-10.075,0-20.15a4.009,4.009,0,0,1,3.348-3.919c.137-.024.274-.055.433-.087-.162-.441-.311-.842-.456-1.245a2.582,2.582,0,0,1,1.621-3.5q6.3-2.3,12.61-4.587a2.574,2.574,0,0,1,3.505,1.657c.243.668.5,1.333.717,2.008a.471.471,0,0,0,.537.392q3.351-.024,6.7,0a2.521,2.521,0,0,1,2.529,2.136,6.219,6.219,0,0,1,.047,1.027c.006.709,0,1.418,0,2.122a4.148,4.148,0,0,1,3.914,4.407c-.054,1.25,0,2.5-.015,3.757,0,.243.04.363.313.423a2.074,2.074,0,0,1,1.3.844A9.606,9.606,0,0,1,142.267,611.842Zm-4.42,8.909c-1.416,0-2.778.015-4.14,0a5.524,5.524,0,0,1,.081-11.046c1.215-.01,2.431,0,3.646,0h.413c0-1.437,0-2.823,0-4.209a1.856,1.856,0,0,0-2.049-2.053h-27a1.854,1.854,0,0,0-2.041,2.061q0,9.78,0,19.561a1.883,1.883,0,0,0,2.117,2.1h26.85c.086,0,.172,0,.258,0a1.844,1.844,0,0,0,1.86-1.879c.009-1.289,0-2.579,0-3.868ZM124.115,595.9c-.2-.568-.389-1.109-.587-1.647-.142-.385-.28-.446-.677-.3q-6.287,2.286-12.573,4.577c-.4.147-.458.281-.306.7.2.553.424,1.1.6,1.66.087.279.228.34.5.339q4.787-.014,9.574-.006h.406c0-.939-.006-1.822,0-2.705a2.568,2.568,0,0,1,2.151-2.564A8.371,8.371,0,0,1,124.115,595.9Zm12.457,22.581v.06c.994,0,1.988,0,2.983,0,.331,0,.5-.134.5-.48q0-2.836,0-5.672c0-.343-.156-.485-.494-.484-1.964.006-3.928-.013-5.891.012A3.3,3.3,0,0,0,130.487,615a3.23,3.23,0,0,0,2.742,3.461A31.011,31.011,0,0,0,136.572,618.481Zm-2.63-17.274c0-.842,0-1.66,0-2.479,0-.514-.083-.6-.6-.6h-9.493c-.074,0-.168-.027-.217.008-.134.1-.351.219-.354.337-.03.9-.016,1.808-.016,2.73Z" transform="translate(0 0)" fill="#b7b7b7"/>
    <path id="Path_59" data-name="Path 59" d="M327.49,768.633a1.1,1.1,0,0,1,1.121,1.073,1.1,1.1,0,1,1-2.207.034A1.105,1.105,0,0,1,327.49,768.633Z" transform="translate(-193.713 -154.51)" fill="#b7b7b7"/>
  </g>
</svg>
